<?xml version="1.0" encoding="iso-8859-1"?>
<!-- Generator: Adobe Illustrator 19.0.0, SVG Export Plug-In . SVG Version: 6.00 Build 0)  -->
<svg version="1.1" id="Layer_1" xmlns="http://www.w3.org/2000/svg" xmlns:xlink="http://www.w3.org/1999/xlink" x="0px" y="0px"
	 viewBox="0 0 492.476 492.476" style="enable-background:new 0 0 492.476 492.476;" xml:space="preserve">
<g>
	<path style="fill:#B74208;" d="M221.501,375.884c0,44.704-37.464,97.384-83.664,97.384c-46.208,0-83.672-52.68-83.672-97.384
		c0-44.68,38.144-158.416,84.36-158.416C184.717,217.468,221.501,331.204,221.501,375.884z"/>
	<path style="fill:#B74208;" d="M223.541,110.484c12.312,147.712-36.904,330.528-85.664,330.528
		c-48.744,0-100.376-120.672-88.256-268.392C61.701,25.444,121.045-5.54,169.373,0.764C200.917,4.884,217.373,36.42,223.541,110.484
		z"/>
	<path style="fill:#B74208;" d="M226.981,119.74c12.312,147.728-40.344,321.272-89.096,321.272
		c-48.744,0-102.016-121.088-89.896-268.816C60.061,25.036,121.045-5.54,169.373,0.764C200.917,4.884,220.797,45.684,226.981,119.74
		z"/>
</g>
<path style="fill:#9B3305;" d="M137.885,377.244c-40.136,0-82.2-81.84-89.048-193.2c-8.624,142.48,41.56,256.976,89.048,256.976
	c46.968,0,94.352-169.664,86.752-314.168C218.501,253.156,178.045,377.244,137.885,377.244z"/>
<path style="fill:#662D14;" d="M63.437,344.1c0-124.992,56.584-114.288,97.704-114.288c41.104,0,42.168,12.344,51.168,114.288
	c10.984,124.544-33.312,148.376-74.416,148.376C96.781,492.476,63.437,469.124,63.437,344.1z"/>
<path style="fill:#D6C5AA;" d="M187.893,373.14c0,53.4-21.808,96.72-48.696,96.72c-26.872,0-48.68-43.32-48.68-96.72
	c0-53.392,3.768-85.72,58.968-81.6C190.861,294.644,187.893,319.748,187.893,373.14z"/>
<path style="fill:#C1B091;" d="M149.477,339.548c30.144,2.264,36.72,16.264,38.08,44.336c0.2-3.52,0.328-7.112,0.328-10.744
	c0-53.392,2.976-78.496-38.408-81.6c-55.2-4.12-58.968,28.208-58.968,81.6c0,6.256,0.336,12.36,0.888,18.272
	C94.189,356.188,105.485,336.276,149.477,339.548z"/>
<g>
	<path style="fill:#E0BA19;" d="M69.781,259.996c-1.408,3.712-3.776,6.264-5.256,5.696c-1.464-0.552-1.504-4.032-0.064-7.76
		c1.4-3.696,3.768-6.256,5.248-5.688C71.181,252.804,71.213,256.276,69.781,259.996z"/>
	<path style="fill:#E0BA19;" d="M81.949,238.292c-1.28,3.36-3.416,5.672-4.752,5.168c-1.336-0.52-1.368-3.672-0.064-7.032
		c1.296-3.368,3.4-5.672,4.744-5.152C83.229,231.78,83.237,234.924,81.949,238.292z"/>
	
		<ellipse transform="matrix(0.3602 0.9329 -0.9329 0.3602 365.2295 -34.5092)" style="fill:#E0BA19;" cx="207.773" cy="249.008" rx="7.208" ry="2.856"/>
	
		<ellipse transform="matrix(0.3614 0.9324 -0.9324 0.3614 336.8289 -36.8888)" style="fill:#E0BA19;" cx="195.345" cy="227.456" rx="6.528" ry="2.592"/>
</g>
<g>
	<path style="fill:#DD642F;" d="M147.429,117.348c15.648,0,30.448,0.84,43.816,2.312c-10.384-7.272-26.16-11.912-43.816-11.912
		c-17.672,0-33.44,4.648-43.832,11.912C116.957,118.188,131.773,117.348,147.429,117.348z"/>
	<path style="fill:#DD642F;" d="M159.653,33.788c17.152,4.096,32.88,10.032,46.664,17.144c-7.096-20.616-17.08-34.576-36.44-39.192
		c-19.376-4.64-43.96,1.08-59.608,16.24C125.757,27.884,142.493,29.692,159.653,33.788z"/>
	<path style="fill:#DD642F;" d="M145.365,135.14c15.656,0,30.464,0.352,43.816,0.976c-10.384-3.072-26.144-5.056-43.816-5.056
		c-17.664,0-33.424,1.984-43.816,5.056C114.901,135.5,129.725,135.14,145.365,135.14z"/>
</g>
<ellipse style="fill:#E0BA19;" cx="98.821" cy="159.276" rx="3.856" ry="5.912"/>
<path style="fill:#DDA61B;" d="M98.813,153.356c2.136,0,3.864,2.648,3.864,5.904c0,3.264-1.728,5.912-3.864,5.912"/>
<ellipse style="fill:#E0BA19;" cx="98.821" cy="182.956" rx="3.856" ry="5.912"/>
<path style="fill:#DDA61B;" d="M98.813,177.004c2.136,0,3.864,2.656,3.864,5.92s-1.728,5.912-3.864,5.912"/>
<ellipse style="fill:#E0BA19;" cx="98.821" cy="206.556" rx="3.856" ry="5.92"/>
<path style="fill:#DDA61B;" d="M98.813,200.66c2.136,0,3.864,2.664,3.864,5.92c0,3.264-1.728,5.92-3.864,5.92"/>
<ellipse style="fill:#E0BA19;" cx="184.541" cy="159.276" rx="3.856" ry="5.912"/>
<path style="fill:#DDA61B;" d="M184.549,153.356c2.12,0,3.848,2.648,3.848,5.904c0,3.264-1.728,5.912-3.848,5.912"/>
<ellipse style="fill:#E0BA19;" cx="184.541" cy="182.956" rx="3.856" ry="5.912"/>
<path style="fill:#DDA61B;" d="M184.549,177.004c2.12,0,3.848,2.656,3.848,5.92s-1.728,5.912-3.848,5.912"/>
<ellipse style="fill:#E0BA19;" cx="184.541" cy="206.556" rx="3.856" ry="5.92"/>
<path style="fill:#DDA61B;" d="M184.549,200.66c2.12,0,3.848,2.664,3.848,5.92c0,3.264-1.728,5.92-3.848,5.92"/>
<path style="fill:#662D14;" d="M178.277,451.324c0,12.12-18.12,21.944-40.464,21.944s-40.456-9.832-40.456-21.944
	s18.112-5.488,40.456-5.488S178.277,439.204,178.277,451.324z"/>
<g>
	<path style="fill:#9B4223;" d="M179.829,450.38c0,4.872-18.12,8.832-40.48,8.832c-22.336,0-40.464-3.952-40.464-8.832
		s18.128-2.208,40.464-2.208C161.709,448.164,179.829,445.5,179.829,450.38z"/>
	<path style="fill:#9B4223;" d="M77.997,324.38c5.112-23.512,13.216-43.12,20.816-52.192c-0.488-0.264-0.992-0.44-1.512-0.504
		c-8.4-1.216-18.76,22.512-23.136,52.984c-2.416,16.848-2.488,32.232-0.672,42.824C73.013,355.868,74.453,340.684,77.997,324.38z"/>
	<path style="fill:#9B4223;" d="M78.197,284.572c5.712-15.136,13.048-27.384,19-32.68c-0.288-0.224-0.632-0.384-0.944-0.48
		c-5.48-1.648-14.728,13.136-20.64,32.984c-3.264,10.976-4.832,21.208-4.664,28.44C71.773,305.044,74.221,295.084,78.197,284.572z"
		/>
	<path style="fill:#9B4223;" d="M199.333,324.38c-5.104-23.512-13.2-43.12-20.816-52.192c0.48-0.264,1-0.44,1.512-0.504
		c8.4-1.216,18.768,22.512,23.136,52.984c2.416,16.848,2.496,32.232,0.664,42.824C204.333,355.868,202.885,340.684,199.333,324.38z"
		/>
</g>
<path style="fill:#DD642F;" d="M185.021,272.724c0.016,1.944-3.952,3.568-8.84,3.6l-64.992,0.432
	c-4.888,0.04-8.864-1.52-8.872-3.472l-0.32-46.512c-0.008-1.936,3.96-3.544,8.848-3.584l64.976-0.432
	c4.896-0.04,8.888,1.512,8.904,3.472L185.021,272.724z"/>
<path style="fill:#B74208;" d="M185.021,264.484c0.016,1.96-3.952,3.568-8.84,3.6l-64.992,0.44c-4.888,0.04-8.864-1.528-8.872-3.472
	l-0.32-46.512c-0.008-1.944,3.96-3.552,8.848-3.584l64.976-0.432c4.896-0.032,8.888,1.528,8.904,3.48L185.021,264.484z"/>
<g>
	<path style="fill:#662D14;" d="M176.229,159.532c0,1.328-1.072,2.4-2.4,2.4h-64.464c-1.328,0-2.4-1.072-2.4-2.4l0,0
		c0-1.328,1.072-2.416,2.4-2.416h64.464C175.157,157.116,176.229,158.212,176.229,159.532L176.229,159.532z"/>
	<path style="fill:#662D14;" d="M176.229,182.156c0,1.328-1.072,2.408-2.4,2.408h-64.464c-1.328,0-2.4-1.08-2.4-2.408l0,0
		c0-1.328,1.072-2.408,2.4-2.408h64.464C175.157,179.748,176.229,180.836,176.229,182.156L176.229,182.156z"/>
	<path style="fill:#662D14;" d="M176.229,204.78c0,1.328-1.072,2.408-2.4,2.408h-64.464c-1.328,0-2.4-1.088-2.4-2.408l0,0
		c0-1.32,1.072-2.4,2.4-2.4h64.464C175.157,202.388,176.229,203.46,176.229,204.78L176.229,204.78z"/>
	<path style="fill:#662D14;" d="M174.397,181.812c0.424,1.264-0.256,2.616-1.504,3.048l-61.04,20.744
		c-1.256,0.432-2.616-0.24-3.04-1.504l0,0c-0.44-1.256,0.256-2.608,1.512-3.04l61.016-20.744
		C172.597,179.892,173.965,180.548,174.397,181.812L174.397,181.812z"/>
	<path style="fill:#662D14;" d="M108.805,181.812c-0.44,1.264,0.24,2.616,1.496,3.048l61.032,20.744
		c1.264,0.432,2.624-0.24,3.056-1.504l0,0c0.424-1.256-0.256-2.608-1.504-3.04l-61.04-20.744
		C110.581,179.892,109.237,180.548,108.805,181.812L108.805,181.812z"/>
	<path style="fill:#662D14;" d="M174.397,159.188c0.424,1.256-0.256,2.616-1.504,3.048l-61.04,20.744
		c-1.256,0.424-2.616-0.248-3.04-1.504l0,0c-0.44-1.256,0.256-2.616,1.512-3.04l61.016-20.752
		C172.597,157.26,173.965,157.924,174.397,159.188L174.397,159.188z"/>
	<path style="fill:#662D14;" d="M108.805,159.188c-0.44,1.256,0.24,2.616,1.496,3.048l61.032,20.744
		c1.264,0.424,2.624-0.248,3.056-1.504l0,0c0.424-1.256-0.256-2.616-1.504-3.04l-61.04-20.752
		C110.581,157.26,109.237,157.924,108.805,159.188L108.805,159.188z"/>
</g>
<g>
	<path style="fill:#DD642F;" d="M101.893,268.492c0-9.952,18.496-18.04,41.296-18.04s41.272,8.088,41.272,18.04
		c0,9.976-18.48,4.504-41.272,4.504C120.381,273.004,101.893,278.468,101.893,268.492z"/>
	<path style="fill:#DD642F;" d="M184.045,272.804c0,4.384-18.32,7.928-40.904,7.928c-22.6,0-40.912-3.544-40.912-7.928
		s18.312-1.976,40.912-1.976C165.725,270.828,184.045,268.42,184.045,272.804z"/>
</g>
<path style="fill:#E89258;" d="M101.893,269.996c0-7.168,18.496-13.016,41.296-13.016c22.816,0,41.272,5.84,41.272,13.016
	c0,7.208-18.464,3.248-41.272,3.248S101.893,277.204,101.893,269.996z"/>
<g>
	<path style="fill:#B74208;" d="M270.973,375.884c0,44.704,37.472,97.384,83.672,97.384c46.208,0,83.664-52.68,83.664-97.384
		c0-44.68-38.144-158.416-84.36-158.416C307.765,217.468,270.973,331.204,270.973,375.884z"/>
	<path style="fill:#B74208;" d="M268.941,110.484c-12.312,147.712,36.904,330.528,85.656,330.528
		c48.744,0,100.376-120.672,88.264-268.392C430.781,25.444,371.437-5.54,323.109,0.764C291.557,4.884,275.109,36.42,268.941,110.484
		z"/>
	<path style="fill:#B74208;" d="M265.493,119.74c-12.312,147.728,40.352,321.272,89.096,321.272s102.024-121.088,89.896-268.816
		C432.413,25.036,371.437-5.54,323.109,0.764C291.557,4.884,271.685,45.684,265.493,119.74z"/>
</g>
<path style="fill:#9B3305;" d="M354.589,377.244c40.136,0,82.2-81.84,89.048-193.2c8.632,142.48-41.56,256.976-89.048,256.976
	c-46.96,0-94.344-169.664-86.744-314.168C273.981,253.156,314.429,377.244,354.589,377.244z"/>
<path style="fill:#662D14;" d="M429.037,344.1c0-124.992-56.576-114.288-97.704-114.288c-41.096,0-42.168,12.344-51.16,114.288
	c-10.984,124.544,33.312,148.376,74.408,148.376C395.701,492.476,429.037,469.124,429.037,344.1z"/>
<path style="fill:#D6C5AA;" d="M304.589,373.14c0,53.4,21.808,96.72,48.688,96.72c26.872,0,48.696-43.32,48.696-96.72
	c0-53.392-3.776-85.72-58.976-81.6C301.613,294.644,304.589,319.748,304.589,373.14z"/>
<path style="fill:#C1B091;" d="M343.005,339.548c-30.144,2.264-36.728,16.264-38.08,44.336c-0.2-3.52-0.328-7.112-0.328-10.744
	c0-53.392-2.984-78.496,38.408-81.6c55.2-4.12,58.976,28.208,58.976,81.6c0,6.256-0.336,12.36-0.896,18.272
	C398.293,356.188,386.997,336.276,343.005,339.548z"/>
<g>
	<path style="fill:#E0BA19;" d="M422.693,259.996c1.416,3.712,3.776,6.264,5.264,5.696c1.464-0.552,1.504-4.032,0.064-7.76
		c-1.408-3.696-3.76-6.256-5.256-5.688C421.301,252.804,421.269,256.276,422.693,259.996z"/>
	
		<ellipse transform="matrix(0.3607 0.9327 -0.9327 0.3607 485.3593 -233.3845)" style="fill:#E0BA19;" cx="412.922" cy="237.353" rx="6.528" ry="2.592"/>
	
		<ellipse transform="matrix(0.3597 -0.9331 0.9331 0.3597 -50.1071 425.1454)" style="fill:#E0BA19;" cx="284.711" cy="249.081" rx="7.208" ry="2.864"/>
	
		<ellipse transform="matrix(0.3608 -0.9326 0.9326 0.3608 -22.1627 422.4551)" style="fill:#E0BA19;" cx="297.121" cy="227.396" rx="6.52" ry="2.592"/>
</g>
<g>
	<path style="fill:#DD642F;" d="M345.045,117.348c-15.64,0-30.44,0.84-43.808,2.312c10.392-7.272,26.152-11.912,43.808-11.912
		c17.68,0,33.448,4.648,43.832,11.912C375.525,118.188,360.709,117.348,345.045,117.348z"/>
	<path style="fill:#DD642F;" d="M332.821,33.788c-17.152,4.096-32.88,10.032-46.664,17.144c7.096-20.616,17.072-34.576,36.44-39.192
		c19.368-4.64,43.96,1.08,59.608,16.24C366.725,27.884,349.989,29.692,332.821,33.788z"/>
	<path style="fill:#DD642F;" d="M347.117,135.14c-15.664,0-30.464,0.352-43.824,0.976c10.392-3.072,26.152-5.056,43.824-5.056
		c17.664,0,33.424,1.984,43.816,5.056C377.581,135.5,362.765,135.14,347.117,135.14z"/>
</g>
<ellipse style="fill:#E0BA19;" cx="393.677" cy="159.276" rx="3.856" ry="5.912"/>
<path style="fill:#DDA61B;" d="M393.669,153.356c-2.144,0-3.864,2.648-3.864,5.904c0,3.264,1.72,5.912,3.864,5.912"/>
<ellipse style="fill:#E0BA19;" cx="393.677" cy="182.956" rx="3.856" ry="5.912"/>
<path style="fill:#DDA61B;" d="M393.669,177.004c-2.144,0-3.864,2.656-3.864,5.92s1.72,5.912,3.864,5.912"/>
<ellipse style="fill:#E0BA19;" cx="393.677" cy="206.556" rx="3.856" ry="5.92"/>
<path style="fill:#DDA61B;" d="M393.669,200.66c-2.144,0-3.864,2.664-3.864,5.92c0,3.264,1.72,5.92,3.864,5.92"/>
<ellipse style="fill:#E0BA19;" cx="307.941" cy="159.276" rx="3.856" ry="5.912"/>
<path style="fill:#DDA61B;" d="M307.933,153.356c-2.128,0-3.848,2.648-3.848,5.904c0,3.264,1.728,5.912,3.848,5.912"/>
<ellipse style="fill:#E0BA19;" cx="307.941" cy="182.956" rx="3.856" ry="5.912"/>
<path style="fill:#DDA61B;" d="M307.933,177.004c-2.128,0-3.848,2.656-3.848,5.92s1.728,5.912,3.848,5.912"/>
<ellipse style="fill:#E0BA19;" cx="307.941" cy="206.556" rx="3.856" ry="5.92"/>
<path style="fill:#DDA61B;" d="M307.933,200.66c-2.128,0-3.848,2.664-3.848,5.92c0,3.264,1.728,5.92,3.848,5.92"/>
<path style="fill:#662D14;" d="M314.205,451.324c0,12.12,18.112,21.944,40.464,21.944c22.344,0,40.456-9.832,40.456-21.944
	s-18.112-5.488-40.456-5.488C332.317,445.836,314.205,439.204,314.205,451.324z"/>
<g>
	<path style="fill:#9B4223;" d="M312.645,450.38c0,4.872,18.128,8.832,40.488,8.832c22.336,0,40.456-3.952,40.456-8.832
		s-18.112-2.208-40.456-2.208C330.773,448.164,312.645,445.5,312.645,450.38z"/>
	<path style="fill:#9B4223;" d="M414.477,324.38c-5.104-23.512-13.208-43.12-20.816-52.192c0.488-0.264,0.992-0.44,1.504-0.504
		c8.4-1.216,18.768,22.512,23.136,52.984c2.424,16.848,2.496,32.232,0.672,42.824C419.461,355.868,418.029,340.684,414.477,324.38z"
		/>
	<path style="fill:#9B4223;" d="M414.285,284.572c-5.712-15.136-13.048-27.384-19-32.68c0.28-0.224,0.632-0.384,0.944-0.48
		c5.472-1.648,14.72,13.136,20.632,32.984c3.264,10.976,4.832,21.208,4.672,28.44C420.717,305.044,418.261,295.084,414.285,284.572z
		"/>
	<path style="fill:#9B4223;" d="M293.149,324.38c5.104-23.512,13.2-43.12,20.816-52.192c-0.48-0.264-1-0.44-1.512-0.504
		c-8.4-1.216-18.768,22.512-23.136,52.984c-2.416,16.848-2.496,32.232-0.664,42.824C288.149,355.868,289.597,340.684,293.149,324.38
		z"/>
</g>
<path style="fill:#DD642F;" d="M307.453,272.724c-0.016,1.944,3.96,3.568,8.84,3.6l65,0.432c4.88,0.04,8.864-1.52,8.872-3.472
	l0.32-46.512c0-1.936-3.96-3.544-8.84-3.584l-64.984-0.432c-4.88-0.04-8.88,1.512-8.896,3.472L307.453,272.724z"/>
<path style="fill:#B74208;" d="M307.453,264.484c-0.016,1.96,3.96,3.568,8.84,3.6l65,0.44c4.88,0.04,8.864-1.528,8.872-3.472
	l0.32-46.512c0-1.944-3.96-3.552-8.84-3.584l-64.984-0.432c-4.88-0.032-8.88,1.528-8.896,3.48L307.453,264.484z"/>
<g>
	<path style="fill:#662D14;" d="M316.253,159.532c0,1.328,1.08,2.4,2.4,2.4h64.464c1.32,0,2.4-1.072,2.4-2.4l0,0
		c0-1.328-1.08-2.416-2.4-2.416h-64.464C317.333,157.116,316.253,158.212,316.253,159.532L316.253,159.532z"/>
	<path style="fill:#662D14;" d="M316.253,182.156c0,1.328,1.08,2.408,2.4,2.408h64.464c1.32,0,2.4-1.08,2.4-2.408l0,0
		c0-1.328-1.08-2.408-2.4-2.408h-64.464C317.333,179.748,316.253,180.836,316.253,182.156L316.253,182.156z"/>
	<path style="fill:#662D14;" d="M316.253,204.78c0,1.328,1.08,2.408,2.4,2.408h64.464c1.32,0,2.4-1.088,2.4-2.408l0,0
		c0-1.32-1.08-2.4-2.4-2.4h-64.464C317.333,202.388,316.253,203.46,316.253,204.78L316.253,204.78z"/>
	<path style="fill:#662D14;" d="M318.077,181.812c-0.416,1.264,0.264,2.616,1.512,3.048l61.032,20.744
		c1.256,0.432,2.624-0.24,3.048-1.504l0,0c0.448-1.256-0.248-2.608-1.512-3.04l-61.016-20.744
		C319.885,179.892,318.517,180.548,318.077,181.812L318.077,181.812z"/>
	<path style="fill:#662D14;" d="M383.677,181.812c0.448,1.264-0.248,2.616-1.496,3.048l-61.032,20.744
		c-1.264,0.432-2.624-0.24-3.064-1.504l0,0c-0.416-1.256,0.264-2.608,1.512-3.04l61.032-20.744
		C381.893,179.892,383.245,180.548,383.677,181.812L383.677,181.812z"/>
	<path style="fill:#662D14;" d="M318.077,159.188c-0.416,1.256,0.264,2.616,1.512,3.048l61.032,20.744
		c1.256,0.424,2.624-0.248,3.048-1.504l0,0c0.448-1.256-0.248-2.616-1.512-3.04l-61.016-20.752
		C319.885,157.26,318.517,157.924,318.077,159.188L318.077,159.188z"/>
	<path style="fill:#662D14;" d="M383.677,159.188c0.448,1.256-0.248,2.616-1.496,3.048l-61.032,20.744
		c-1.264,0.424-2.624-0.248-3.064-1.504l0,0c-0.416-1.256,0.264-2.616,1.512-3.04l61.032-20.752
		C381.893,157.26,383.245,157.924,383.677,159.188L383.677,159.188z"/>
</g>
<g>
	<path style="fill:#DD642F;" d="M390.597,268.492c0-9.952-18.496-18.04-41.304-18.04s-41.272,8.088-41.272,18.04
		c0,9.976,18.472,4.504,41.272,4.504C372.109,273.004,390.597,278.468,390.597,268.492z"/>
	<path style="fill:#DD642F;" d="M308.445,272.804c0,4.384,18.304,7.928,40.896,7.928c22.6,0,40.904-3.544,40.904-7.928
		s-18.304-1.976-40.904-1.976C326.749,270.828,308.445,268.42,308.445,272.804z"/>
</g>
<path style="fill:#E89258;" d="M390.597,269.996c0-7.168-18.496-13.016-41.304-13.016c-22.824,0-41.272,5.84-41.272,13.016
	c0,7.208,18.456,3.248,41.272,3.248C372.109,273.244,390.597,277.204,390.597,269.996z"/>
<g>
</g>
<g>
</g>
<g>
</g>
<g>
</g>
<g>
</g>
<g>
</g>
<g>
</g>
<g>
</g>
<g>
</g>
<g>
</g>
<g>
</g>
<g>
</g>
<g>
</g>
<g>
</g>
<g>
</g>
</svg>
