<?xml version="1.0" encoding="iso-8859-1"?>
<!-- Generator: Adobe Illustrator 21.0.0, SVG Export Plug-In . SVG Version: 6.00 Build 0)  -->
<svg version="1.1" id="Capa_1" xmlns="http://www.w3.org/2000/svg" xmlns:xlink="http://www.w3.org/1999/xlink" x="0px" y="0px"
	 viewBox="0 0 512 512" style="enable-background:new 0 0 512 512;" xml:space="preserve">
<path style="fill:#FF8C4F;" d="M16.41,403.667V109.972h192.702l3.428,14.43c14.867,62.589,63.769,111.438,126.374,126.238
	l141.079,33.351c14.363,3.395,24.507,16.218,24.507,30.976v88.7l-37.736,17.645H49.947L16.41,403.667z"/>
<path style="fill:#EE6B28;" d="M46.41,176.158h187.979c-9.942-15.677-17.418-33.099-21.85-51.756l-3.428-14.43H46.41h-30v66.186
	v227.509l33.537,17.646h30L46.41,403.667V176.158z"/>
<path style="fill:#3A484A;" d="M115,187.413v-77.441H16.41v174.619l65.417-38.876C102.394,233.492,115,211.337,115,187.413z"/>
<polygon style="fill:#313D40;" points="115,109.972 46.41,109.972 16.41,109.972 16.41,176.158 16.41,284.591 46.41,266.763 
	46.41,176.158 115,176.158 "/>
<path style="fill:#C86D5C;" d="M49.947,421.312h416.817l37.736-17.646v-63.611H394.813c-7.48,0-14.867,1.659-21.63,4.857
	l-53.797,25.445c-6.762,3.198-14.149,4.857-21.629,4.857h-185.67c-13.417,0-26.284-5.33-35.771-14.817l0,0
	c-9.487-9.487-22.354-14.817-35.771-14.817H16.41v58.086L49.947,421.312z"/>
<path style="fill:#AD5645;" d="M46.41,345.936c-1.938-0.226-3.894-0.355-5.865-0.355H16.41v58.086l33.537,17.646h30L46.41,403.667
	V345.936z"/>
<path style="fill:#3A484A;" d="M470.248,381.521l-8.919,11.251c-5.456,6.882-13.757,10.894-22.539,10.894H16.41l-8.781,32.795
	c-1.268,10.538,6.959,19.814,17.573,19.814h83.56c6.125,0,11.412-4.295,12.666-10.29l1.276-6.096
	c1.255-5.995,6.541-10.29,12.666-10.29h73.756c6.125,0,11.412,4.295,12.666,10.29l1.276,6.095c1.255,5.995,6.541,10.29,12.666,10.29
	H486.8c9.775,0,17.7-7.924,17.7-17.7V421.31v-17.646v-33.04h-11.713C484.004,370.627,475.703,374.639,470.248,381.521z"/>
<path style="fill:#313D40;" d="M37.629,436.461l8.781-32.795h-30l-8.781,32.795c-1.268,10.538,6.959,19.814,17.573,19.814h30
	C44.589,456.275,36.361,446.999,37.629,436.461z"/>
<path style="fill:#AD5645;" d="M228.755,151.158H14.532c-3.884,0-7.032-3.148-7.032-7.032V62.758c0-3.884,3.148-7.032,7.032-7.032
	h214.223c3.884,0,7.032,3.148,7.032,7.032v81.368C235.786,148.008,232.638,151.158,228.755,151.158z"/>
<path style="fill:#993F33;" d="M37.5,144.126V62.758c0-3.884,3.148-7.032,7.032-7.032h-30c-3.883,0-7.032,3.148-7.032,7.032v81.367
	c0,3.884,3.148,7.032,7.032,7.032h30C40.648,151.158,37.5,148.008,37.5,144.126z"/>
<path style="fill:#C86D5C;" d="M231.239,151.158h-43.191c-26.353,0-47.715-21.363-47.715-47.715l0,0
	c0-26.353,21.363-47.715,47.715-47.715h43.191c2.511,0,4.547,2.036,4.547,4.547v86.337
	C235.786,149.122,233.751,151.158,231.239,151.158z"/>
<path style="fill:#AD5645;" d="M170.333,103.442L170.333,103.442c0-26.353,21.363-47.716,47.716-47.716h-30
	c-26.353,0-47.716,21.363-47.716,47.715l0,0c0,26.353,21.363,47.716,47.716,47.716h30
	C191.696,151.158,170.333,129.795,170.333,103.442z"/>
<circle style="fill:#3A484A;" cx="175" cy="207.001" r="19"/>
<path style="fill:#313D40;" d="M171,207.001c0-7.829,4.738-14.547,11.5-17.457c-2.302-0.99-4.835-1.543-7.5-1.543
	c-10.493,0-19,8.507-19,19s8.507,19,19,19c2.665,0,5.198-0.553,7.5-1.543C175.738,221.548,171,214.829,171,207.001z"/>
<circle style="fill:#3A484A;" cx="239.79" cy="270.641" r="19"/>
<path style="fill:#313D40;" d="M235.786,270.642c0-7.829,4.738-14.547,11.5-17.457c-2.302-0.99-4.835-1.543-7.5-1.543
	c-10.493,0-19,8.507-19,19s8.507,19,19,19c2.665,0,5.198-0.553,7.5-1.543C240.524,285.189,235.786,278.471,235.786,270.642z"/>
<path d="M481.718,276.691l-141.079-33.35c-18.737-4.43-36.345-12.161-52.104-22.581l0.916-1.194
	c2.521-3.287,1.899-7.995-1.387-10.515c-3.287-2.522-7.995-1.899-10.516,1.387l-1.132,1.476
	c-10.566-8.47-20.083-18.237-28.276-29.088l2.181-0.966c3.788-1.677,5.499-6.106,3.822-9.894s-6.107-5.499-9.894-3.822l-4.719,2.089
	c-2.429-3.938-4.697-7.987-6.789-12.144c6.078-1.739,10.544-7.333,10.544-13.962V62.758c0-8.013-6.519-14.532-14.532-14.532H83.202
	c-4.142,0-7.5,3.358-7.5,7.5s3.358,7.5,7.5,7.5h67.071c-10.723,10.079-17.439,24.374-17.439,40.216s6.716,30.137,17.439,40.215H15
	v-80.43h40.202c4.142,0,7.5-3.358,7.5-7.5s-3.358-7.5-7.5-7.5h-40.67C6.519,48.227,0,54.746,0,62.758v81.368
	c0,6.021,3.681,11.196,8.91,13.399v245.156l-8.525,31.84c-0.092,0.343-0.159,0.692-0.202,1.044
	c-0.86,7.151,1.387,14.343,6.166,19.731c4.779,5.389,11.65,8.479,18.853,8.479h83.56c9.623,0,18.037-6.836,20.007-16.253
	l1.276-6.096c0.525-2.506,2.764-4.326,5.325-4.326h73.756c2.561,0,4.801,1.819,5.326,4.326l1.275,6.096
	c1.971,9.418,10.385,16.253,20.007,16.253H486.8c13.896,0,25.2-11.305,25.2-25.2v-67.949v-55.66
	C512,296.646,499.548,280.906,481.718,276.691z M147.833,103.442c0-22.175,18.041-40.215,40.215-40.215h40.237v80.431h-40.237
	C165.874,143.658,147.833,125.617,147.833,103.442z M216.402,158.658c2.776,6.096,5.888,12,9.309,17.692l-30.523,13.512
	c-4.865-5.721-12.107-9.361-20.188-9.361c-14.612,0-26.5,11.888-26.5,26.5s11.888,26.5,26.5,26.5s26.5-11.888,26.5-26.5
	c0-1.162-0.083-2.305-0.229-3.428l32.83-14.533c9.465,13.059,20.648,24.756,33.19,34.773l-17.193,22.418
	c-3.171-1.345-6.656-2.089-10.312-2.089c-14.612,0-26.5,11.888-26.5,26.5s11.888,26.5,26.5,26.5s26.5-11.888,26.5-26.5
	c0-5.515-1.695-10.641-4.589-14.887l17.701-23.08c17.437,11.681,36.973,20.343,57.79,25.264l141.079,33.351
	c11.03,2.607,18.733,12.344,18.733,23.678v17.589H394.813c-8.533,0-17.122,1.928-24.837,5.577l-53.797,25.445
	c-5.722,2.706-12.092,4.137-18.422,4.137h-185.67c-11.509,0-22.33-4.482-30.468-12.62c-10.971-10.972-25.559-17.014-41.075-17.014
	H23.91v-49.223l61.749-36.696c22.725-13.504,36.841-38.315,36.841-64.75v-28.755H216.402z M186.5,207.001
	c0,6.341-5.159,11.5-11.5,11.5s-11.5-5.159-11.5-11.5s5.159-11.5,11.5-11.5S186.5,200.66,186.5,207.001z M251.286,270.642
	c0,6.341-5.159,11.5-11.5,11.5s-11.5-5.159-11.5-11.5s5.159-11.5,11.5-11.5S251.286,264.301,251.286,270.642z M23.91,271.409
	V158.658h83.59v28.755c0,21.17-11.306,41.04-29.504,51.855L23.91,271.409z M497,438.576c0,5.624-4.576,10.2-10.2,10.2H235.734
	c-2.561,0-4.801-1.819-5.326-4.326l-1.275-6.096c-1.971-9.418-10.385-16.253-20.007-16.253H135.37
	c-9.622,0-18.037,6.835-20.007,16.253l-1.276,6.097c-0.524,2.506-2.764,4.326-5.325,4.326h-83.56c-2.958,0-5.668-1.219-7.631-3.432
	c-1.86-2.097-2.753-4.754-2.541-7.526l7.136-26.651h350.469c4.143,0,7.5-3.358,7.5-7.5s-3.357-7.5-7.5-7.5H23.91v-43.087h16.635
	c11.51,0,22.33,4.482,30.468,12.62c10.971,10.972,25.559,17.014,41.075,17.014h185.67c8.534,0,17.122-1.929,24.836-5.577
	l53.796-25.444c5.723-2.707,12.094-4.137,18.424-4.137H497v15.571h-4.213c-11.141,0-21.498,5.006-28.416,13.735l-8.92,11.25
	c-4.058,5.118-10.131,8.054-16.662,8.054h-38.153c-4.143,0-7.5,3.358-7.5,7.5s3.357,7.5,7.5,7.5h38.153
	c11.139,0,21.496-5.006,28.416-13.735l8.921-11.251c4.057-5.118,10.129-8.053,16.661-8.053H497V438.576z"/>
<g>
</g>
<g>
</g>
<g>
</g>
<g>
</g>
<g>
</g>
<g>
</g>
<g>
</g>
<g>
</g>
<g>
</g>
<g>
</g>
<g>
</g>
<g>
</g>
<g>
</g>
<g>
</g>
<g>
</g>
</svg>
