<svg viewBox="0 -66 511.99965 511" xmlns="http://www.w3.org/2000/svg"><path d="m289.773438 19.179688c-11.59375-9.105469-25.65625-11.792969-35.410157-12.4375-1.734375-.117188-3.476562-.175782-5.171875-.175782-12.636718 0-23.535156 3.25-31.515625 9.40625-8.246093 6.367188-14.199219 16.699219-16.324219 28.34375-1.660156 9.136719-1.167968 19.257813 1.464844 30.082032l.4375 1.800781 14.523438-2.390625-.652344-2.175782c-3.09375-10.367187-2.210938-21.691406 2.425781-31.070312 5.515625-11.140625 16.371094-19.398438 28.332031-21.550781 2.074219-.371094 4.214844-.5625 6.367188-.5625 10.398438 0 20.640625 4.359375 27.390625 11.664062 8.578125 9.28125 11.554687 22.878907 7.585937 34.628907-2.644531 7.8125-8.175781 14.636718-15.574218 19.210937-5.839844 3.597656-12.726563 5.738281-19.917969 6.195313l-1.867187.117187-.125 28.945313 2.074218-.066407c.773438-.027343 1.542969-.039062 2.308594-.039062 1.488281 0 2.988281.046875 4.464844.144531l2.078125.136719.492187-20.082031c.019532-.808594.523438-1.53125 1.28125-1.835938 12.15625-4.859375 21.382813-10.519531 28.207032-17.304688 8.335937-8.273437 13.25-18.769531 13.480468-28.796874.265625-11.722657-6.003906-24.058594-16.355468-32.1875zm0 0" fill="#d8deec"/><path d="m451.441406 280.300781-120.839844-88.679687c-7.710937-5.667969-16.457031-12.089844-21.777343-21.125-2.636719-4.460938-4.3125-9.355469-5.953125-14.144532-1.523438-4.472656-2.960938-8.695312-5.164063-12.648437-1.773437-3.191406-4.101562-6.113281-6.917969-8.683594-8.121093-7.417969-21.121093-11.84375-34.769531-11.84375-1.589843 0-3.152343.054688-4.644531.164063-16.804688 1.21875-30.667969 8.832031-37.082031 20.359375-2.203125 3.957031-3.640625 8.179687-5.1875 12.710937-1.617188 4.730469-3.292969 9.621094-5.929688 14.089844-5.320312 9.03125-14.0625 15.453125-21.820312 21.152344l-120.8125 88.660156c-15.65625 11.496094-31.847657 23.378906-42.859375 39.683594-15.21875 22.507812-11.789063 41.796875-9.609375 49.046875l.8125 2.691406 2.273437-1.648437c1.117188-.804688 2.433594-1.753907 3.996094-2.859376 4.273438-3.027343 9.386719-6.542968 13.125-9.109374l.890625-.613282c2.097656-1.4375 3.628906-2.496094 4.128906-2.855468l6.230469-4.492188.140625-.15625c.207031-.226562.425781-.390625.671875-.496094l.199219-.089844.179687-.125c6.402344-4.632812 12.863282-9.324218 19.273438-13.996093 17.449218-12.722657 35.316406-25.890625 53.097656-39.140625 35.289062-26.308594 70.59375-53.199219 104.933594-79.925782 6.601562-5.132812 13.183594-10.273437 19.757812-15.4375 1.492188-1.171874 2.933594-2.53125 4.324219-3.847656 2.960937-2.785156 6.019531-5.667968 9.945313-7.375 1.378906-.605468 2.644531-.898437 3.875-.898437 2.46875 0 4.421874 1.246093 6.167968 2.59375 2.375 1.828125 4.753906 3.710937 7.078125 5.550781l2.75 2.167969c1.046875.828125 2.09375 1.652343 3.140625 2.46875 17.136719 13.445312 34.640625 27.035156 52.035156 40.382812 34.722657 26.660157 70.15625 53.277344 105.3125 79.117188 22.816407 16.769531 45.800782 33.429687 68.3125 49.515625l2.25 1.605468.824219-2.636718c2.269531-7.28125 5.898438-26.671875-9.484375-49.4375-11.011718-16.304688-27.203125-28.1875-42.875-39.695313zm-411.980468 53.441407c-.226563 1.511718-1.015626 2.835937-2.167969 3.640624-.851563.605469-1.910157.921876-3.0625.921876-1.867188 0-3.648438-.859376-4.648438-2.25-.820312-1.140626-1.132812-2.351563-.921875-3.597657.234375-1.363281 1.117188-2.667969 2.425782-3.582031 1.070312-.75 2.328124-1.160156 3.546874-1.160156 1.089844 0 2.644532.34375 3.886719 1.972656.828125 1.085938 1.171875 2.5625.941407 4.054688zm445.117187 2.3125c-1 1.390624-2.78125 2.25-4.648437 2.25-1.152344 0-2.210938-.316407-3.074219-.929688-1.144531-.796875-1.929688-2.121094-2.160157-3.632812-.226562-1.492188.117188-2.96875.945313-4.054688 1.242187-1.632812 2.796875-1.972656 3.886719-1.972656 1.21875 0 2.476562.410156 3.546875 1.160156 1.308593.910156 2.191406 2.21875 2.421875 3.582031.210937 1.246094-.097656 2.457031-.917969 3.597657zm0 0" fill="#e08e53"/><path d="m438.390625 330.359375-.691406-.507813-.847657.152344c-.101562.019532-.203124.039063-.316406.039063-24.855468.066406-50.234375.101562-77.59375.101562-35.898437 0-72.054687-.054687-103.957031-.101562-34.792969-.054688-68.933594-.101563-104.113281-.101563-27.582032 0-52.496094.03125-76.167969.09375h-.652344l-.523437.386719c-3.71875 2.726563-7.425782 5.445313-11.136719 8.144531-3.25 2.371094-6.519531 4.75-9.777344 7.121094l-4.996093 3.632812 415.417968-1-4.960937-3.605468c-6.578125-4.777344-13.144531-9.566406-19.683594-14.355469zm0 0" fill="#e08e53"/><path d="m483.070312 328.90625c-.5-.347656-1.839843-1.160156-3.53125-1.160156-1.523437 0-2.902343.695312-3.886718 1.972656-.808594 1.074219-1.148438 2.535156-.929688 4.023438.238282 1.515624 1.03125 2.835937 2.148438 3.601562.867187.617188 1.933594.945312 3.078125.945312 1.835937 0 3.601562-.863281 4.59375-2.242187.824219-1.121094 1.144531-2.359375.929687-3.574219-.230468-1.363281-1.109375-2.660156-2.402344-3.566406zm0 0" fill="#ffc973"/><path d="m34.617188 327.75c-1.675782 0-3.015626.804688-3.519532 1.152344-1.304687.910156-2.179687 2.210937-2.40625 3.554687-.21875 1.226563.101563 2.46875.917969 3.578125 1 1.390625 2.765625 2.253906 4.601563 2.253906 1.144531 0 2.210937-.328124 3.046874-.925781 1.148438-.785156 1.941407-2.105469 2.179688-3.636719.21875-1.472656-.121094-2.933593-.9375-4.019531-.96875-1.261719-2.347656-1.957031-3.882812-1.957031zm0 0" fill="#ffc973"/><path d="m499.34375 316.601562c-11.605469-17.183593-28.984375-29.933593-44.3125-41.183593l-120.800781-88.65625c-7.257813-5.324219-15.484375-11.363281-20.191407-19.34375-2.324218-3.945313-3.832031-8.359375-5.433593-13.035157-1.550781-4.535156-3.152344-9.222656-5.597657-13.625-2.09375-3.761718-4.828124-7.203124-8.132812-10.21875-6.707031-6.128906-15.886719-10.351562-26.113281-12.265624l.394531-16.191407c11.730469-4.949219 20.832031-10.726562 27.769531-17.621093 9.433594-9.375 15-21.386719 15.261719-32.957032.3125-13.792968-6.664062-27.660156-18.667969-37.089844-10.136719-7.964843-23.535156-12.714843-38.753906-13.726562-11.421875-.7617188-27.773437.441406-40.792969 10.484375-9.558594 7.375-16.160156 18.757813-18.582031 32.054687-2.015625 11.046876-1.164063 23.28125 2.527344 36.367188.558593 1.976562 2.507812 3.21875 4.535156 2.886719l18.851563-3.101563c1.222656-.203125 2.285156-.953125 2.878906-2.039062.597656-1.089844.660156-2.390625.171875-3.527344-4.210938-9.820312-3.972657-21.246094.632812-30.5625 4.675781-9.449219 13.863281-16.453125 23.972657-18.269531 10.25-1.839844 21.328124 1.792969 28.226562 9.253906 6.984375 7.558594 9.511719 19.039063 6.292969 28.570313-2.15625 6.386718-6.902344 12.21875-13.019531 15.992187-5.839844 3.605469-13.144532 5.5-20.542969 5.386719-1.074219-.046875-2.117188.394531-2.890625 1.148437-.769532.753907-1.207032 1.785157-1.210938 2.867188l-.132812 29.703125c-16.484375 2.488281-29.984375 10.800781-36.691406 22.859375-2.449219 4.398437-4.050782 9.089843-5.601563 13.625-1.597656 4.675781-3.109375 9.089843-5.433594 13.035156-4.703125 7.980469-12.929687 14.019531-20.191406 19.34375l-120.796875 88.65625c-15.332031 11.25-32.707031 24-44.316406 41.183594-10.34375 15.308593-17.902344 39.175781-8.085938 60.234375 0 .003906 0 .003906.003906.003906.683594 1.464844 2.136719 2.328125 3.652344 2.328125.570313 0 1.152344-.125 1.703125-.382813.671875-.3125 1.214844-.785156 1.609375-1.351562 2.464844-2.164062 15.898438-11.390625 21.070313-14.941406 2.15625-1.480469 3.738281-2.566406 4.242187-2.929688 1.917969-1.386718 3.847656-2.777344 5.777344-4.171875l425.351562-1.019531c11.164063 8.074219 22.335938 16.109375 33.460938 24.042969.976562.699219 2.207031.921875 3.367188.617187 1.160156-.304687 2.121093-1.109375 2.628906-2.195312 9.816406-21.058594 2.257812-44.925782-8.089844-60.238282zm-224.644531-230.945312c7.800781-4.816406 13.632812-12.015625 16.421875-20.273438 4.199218-12.4375 1.054687-26.8125-8.015625-36.625-8.71875-9.433593-22.683594-14.03125-35.570313-11.714843-12.578125 2.261719-23.984375 10.933593-29.773437 22.628906-4.902344 9.914063-5.773438 21.75-2.546875 32.535156l-10.449219 1.714844c-2.574219-10.5625-3.058594-20.390625-1.441406-29.253906 2.035156-11.164063 7.710937-21.046875 15.578125-27.117188 11.023437-8.5 25.296875-9.488281 35.328125-8.820312 9.476562.632812 23.125 3.230469 34.308593 12.019531 9.867188 7.753906 15.84375 19.46875 15.589844 30.570312-.21875 9.503907-4.914062 19.5-12.886718 27.421876-6.632813 6.589843-15.640626 12.109374-27.546876 16.867187-1.496093.597656-2.492187 2.035156-2.53125 3.644531l-.441406 18c-2.296875-.152344-4.625-.1875-6.972656-.109375l.109375-24.996093c7.558594-.484376 14.695313-2.699219 20.839844-6.492188zm-262.8125 287.804688c.261719.570312.363281 1.132812.363281 1.65625 0-.558594-.117188-1.121094-.363281-1.65625zm41.898437-26.15625c3.265625-2.371094 6.53125-4.746094 9.785156-7.121094 3.707032-2.703125 7.425782-5.421875 11.140626-8.144532 61.402343-.167968 121.828124-.082031 180.273437 0 34.046875.050782 68.761719.097657 103.957031.097657 25.636719 0 51.53125-.023438 77.597656-.097657.230469 0 .449219-.03125.667969-.066406 6.546875 4.792969 13.109375 9.582032 19.695313 14.367188zm31.9375-23.351563c10.375-7.632813 20.734375-15.300781 30.988282-22.945313 35.101562-26.15625 70.445312-53.074218 105.046874-80.003906 6.597657-5.136718 13.1875-10.285156 19.765626-15.445312 1.683593-1.320313 3.238281-2.785156 4.742187-4.199219 2.703125-2.546875 5.253906-4.953125 8.203125-6.238281 1.378906-.597656 1.824219-.6875 3.929688.9375 2.71875 2.09375 5.410156 4.226562 8.097656 6.355468 1.605468 1.269532 3.210937 2.542969 4.824218 3.808594 17.207032 13.496094 34.730469 27.09375 52.085938 40.414063 33.890625 26.019531 68.503906 52.03125 102.933594 77.367187-58.328125.132813-115.738282.058594-171.347656-.023437-54.941407-.078125-111.648438-.15625-169.269532-.027344zm416.171875 44.886719c-22.773437-16.277344-45.726562-32.914063-68.296875-49.503906-35.199218-25.875-70.621094-52.484376-105.28125-79.09375-17.332031-13.304688-34.832031-26.882813-52.015625-40.363282-1.605469-1.257812-3.199219-2.519531-4.796875-3.785156-2.667968-2.113281-5.429687-4.300781-8.179687-6.421875-2.101563-1.617187-4.433594-3.007813-7.390625-3.007813-1.40625 0-2.953125.316407-4.679688 1.066407-4.234375 1.84375-7.429687 4.851562-10.515625 7.757812-1.433593 1.351563-2.792969 2.628907-4.1875 3.726563-6.570312 5.15625-13.152343 10.296875-19.746093 15.425781-34.554688 26.894531-69.851563 53.777344-104.90625 79.902344-17.539063 13.070312-35.398438 26.234375-53.074219 39.125-6.414063 4.675781-12.867188 9.363281-19.273438 14-.523437.226562-.984375.570312-1.363281.984375-2.023438 1.464844-4.042969 2.921875-6.054688 4.371094-.488281.351562-2.011718 1.398437-4.089843 2.828124-3.746094 2.570313-9.40625 6.457032-14.042969 9.738282-1.566406 1.109375-2.894531 2.0625-4.007812 2.878906-3.613282-12.003906-2.757813-29.445312 9.34375-47.355469 10.828124-16.023437 26.878906-27.804687 42.402343-39.199219l120.800781-88.65625c7.886719-5.78125 16.820313-12.339843 22.367188-21.746093 2.742188-4.65625 4.457031-9.671875 6.117188-14.523438 1.5-4.394531 2.917968-8.542969 5.015624-12.316406 6.082032-10.933594 19.347657-18.167969 35.484376-19.34375 14.679687-1.074219 29.203124 3.207031 37.914062 11.160156 2.660156 2.429688 4.851562 5.183594 6.523438 8.1875 2.097656 3.769531 3.515624 7.921875 5.019531 12.3125 1.65625 4.851563 3.371093 9.867188 6.117187 14.523438 5.542969 9.40625 14.480469 15.964843 22.363282 21.746093l120.800781 88.65625c15.523437 11.394532 31.578125 23.175782 42.402343 39.199219 12.226563 18.097657 12.976563 35.710938 9.230469 47.726563zm0 0"/><path d="m29.9375 327.238281c-1.746094 1.214844-2.929688 3-3.253906 4.890625-.296875 1.765625.140625 3.523438 1.273437 5.089844 1.445313 2.003906 3.867188 3.089844 6.273438 3.089844 1.492187 0 2.976562-.417969 4.222656-1.292969 1.582031-1.117187 2.671875-2.929687 2.988281-4.972656.3125-2.019531-.171875-4.046875-1.328125-5.566407-2.726562-3.570312-7.179687-3.328124-10.175781-1.238281zm7.519531 6.191407c-.148437.96875-.632812 1.800781-1.324219 2.289062-1.460937 1.03125-3.847656.613281-4.90625-.855469-.492187-.683593-.683593-1.375-.566406-2.058593.140625-.835938.71875-1.65625 1.585938-2.261719 1.058594-.738281 3.234375-1.492188 4.660156.378906.496094.652344.699219 1.566406.550781 2.507813zm0 0"/><path d="m484.222656 327.238281c-2.996094-2.089843-7.453125-2.335937-10.175781 1.242188-1.15625 1.515625-1.640625 3.542969-1.328125 5.5625.3125 2.046875 1.402344 3.859375 2.984375 4.972656 1.246094.875 2.734375 1.292969 4.226563 1.292969 2.40625 0 4.828124-1.085938 6.273437-3.085938 1.128906-1.570312 1.570313-3.328125 1.269531-5.09375-.320312-1.890625-1.503906-3.671875-3.25-4.890625zm-1.289062 7.625c-1.058594 1.46875-3.445313 1.886719-4.90625.855469-.691406-.488281-1.175782-1.320312-1.324219-2.289062-.144531-.941407.054687-1.855469.550781-2.507813.664063-.871094 1.488282-1.171875 2.289063-1.171875.921875 0 1.808593.398438 2.371093.792969.867188.605469 1.445313 1.425781 1.585938 2.261719.117188.683593-.074219 1.375-.566406 2.058593zm0 0"/></svg>