<svg viewBox="0 0 512 512.002" xmlns="http://www.w3.org/2000/svg"><path d="m426.835938 82.597656s-10.640626-30.023437-12.90625-75.097656h-138.832032s-8.097656 122.472656-41.742187 178.550781-109.039063 196.746094-109.039063 196.746094v7.746094c0 14.265625 11.566406 25.832031 25.835938 25.832031h91.328125c14 0 26.929687-7.496094 33.882812-19.648438l154.261719-269.609374c6.476562-11.320313 6.875-25.125 1.058594-36.796876zm0 0" fill="#ebad88"/><path d="m430.683594 90.320312-3.847656-7.722656s-10.640626-30.023437-12.90625-75.097656h-30.5c2.265624 45.074219 12.90625 75.097656 12.90625 75.097656l3.847656 7.722656c5.816406 11.671876 5.417968 25.476563-1.058594 36.792969l-154.261719 269.613281c-6.953125 12.152344-19.882812 19.648438-33.882812 19.648438h30.5c14 0 26.929687-7.496094 33.882812-19.648438l154.261719-269.613281c6.476562-11.316406 6.875-25.121093 1.058594-36.792969zm0 0" fill="#e8916f"/><path d="m504.496094 214.730469s-32.796875 231.78125-35.359375 285.972656c-.101563 2.128906-1.859375 3.796875-3.992188 3.796875h-14.558593c-2.035157 0-3.746094-1.523438-3.972657-3.546875-3.144531-27.816406-25.40625-211.03125-71.125-254.738281 0 0 57.5-83.726563 129.007813-31.484375zm0 0" fill="#685c79"/><path d="m473.578125 199.71875c1.058594 9.261719.914063 15.011719.914063 15.011719s-23.726563 167.703125-32.390626 251.160156c2.363282 16.671875 3.855469 29.253906 4.511719 35.0625.226563 2.023437 1.9375 3.546875 3.972657 3.546875h14.558593c2.132813 0 3.890625-1.667969 3.992188-3.796875 2.5625-54.191406 35.355469-285.972656 35.355469-285.972656-10.664063-7.792969-21.015626-12.539063-30.914063-15.011719zm0 0" fill="#594f69"/><path d="m426.835938 82.597656s-74.738282 61.882813-179.558594 276.898438c-20.585938 42.230468-73.710938 56.914062-112.890625 30.984375-6.441407-4.265625-10.070313-7.679688-10.070313-7.679688l-103.804687 46.324219c-14.238281 7.453125-17.421875 26.441406-6.398438 38.132812 22.414063 23.769532 53.632813 37.242188 86.300781 37.242188h114.210938c29.8125 0 57.207031-16.335938 71.425781-42.535156 40.210938-74.085938 129.769531-221.40625 218.441407-247.234375.003906 0 2.320312-90.40625-77.65625-132.132813zm0 0" fill="#ff2c5c"/><path d="m256.050781 461.972656c-14.21875 26.199219-41.609375 42.527344-71.417969 42.527344h29.996094c29.808594 0 57.203125-16.332031 71.425782-42.535156 20.710937-38.160156 54.511718-95.746094 94.542968-146.152344-46.597656 32.1875-100.285156 101.457031-124.546875 146.160156zm0 0" fill="#e62753"/><path d="m426.835938 82.597656s-4.097657 3.394532-11.71875 11.347656c61.3125 44.796876 59.375 120.785157 59.375 120.785157s-.742188 5.234375-2.007813 14.304687c10.625-6.300781 21.324219-11.191406 32.011719-14.304687 0 0 2.316406-90.40625-77.660156-132.132813zm0 0" fill="#e62753"/><path d="m85.648438 181.144531 10.019531 20.351563c1.078125 2.195312 3.164062 3.714844 5.578125 4.066406l22.402344 3.265625c6.078124.886719 8.507812 8.375 4.105468 12.675781l-16.207031 15.84375c-1.75 1.707032-2.546875 4.164063-2.132813 6.578125l3.828126 22.371094c1.039062 6.070313-5.316407 10.699219-10.753907 7.832031l-20.035156-10.5625c-2.160156-1.136718-4.738281-1.136718-6.898437 0l-20.039063 10.566406c-5.4375 2.863282-11.789063-1.765624-10.753906-7.835937l3.828125-22.371094c.410156-2.410156-.386719-4.871093-2.132813-6.578125l-16.207031-15.84375c-4.398438-4.300781-1.972656-11.789062 4.105469-12.675781l22.402343-3.265625c2.414063-.351562 4.5-1.871094 5.578126-4.0625l10.019531-20.355469c2.71875-5.523437 10.574219-5.523437 13.292969 0zm0 0" fill="#ffd659"/><path d="m127.753906 221.503906c4.398438-4.300781 1.972656-11.789062-4.105468-12.675781l-22.402344-3.265625c-2.414063-.351562-4.5-1.871094-5.578125-4.0625l-10.019531-20.355469c-2.71875-5.523437-10.574219-5.523437-13.292969 0l-.527344 1.070313c5.339844 38.785156 26.339844 47.453125 25.039063 88.953125l5.621093 2.964843c5.4375 2.863282 11.789063-1.765624 10.753907-7.835937l-3.828126-22.371094c-.414062-2.410156.382813-4.871093 2.128907-6.578125zm0 0" fill="#ffbd54"/><path d="m191.5625 65.789062 6.875 13.710938c.742188 1.476562 2.171875 2.5 3.828125 2.738281l15.375 2.195313c4.171875.597656 5.835937 5.640625 2.820313 8.539062l-11.125 10.667969c-1.199219 1.152344-1.746094 2.808594-1.464844 4.429687l2.625 15.070313c.714844 4.085937-3.644532 7.203125-7.378906 5.273437l-13.75-7.113281c-1.480469-.765625-3.253907-.765625-4.734376 0l-13.75 7.113281c-3.730468 1.929688-8.09375-1.1875-7.378906-5.273437l2.625-15.070313c.28125-1.621093-.265625-3.277343-1.464844-4.429687l-11.125-10.667969c-3.015624-2.898437-1.351562-7.941406 2.820313-8.539062l15.375-2.195313c1.65625-.238281 3.089844-1.261719 3.828125-2.738281l6.875-13.710938c1.871094-3.71875 7.257812-3.71875 9.125 0zm0 0" fill="#ffd659"/><path d="m209.332031 103.640625c-1.191406 1.148437-1.742187 2.808594-1.460937 4.429687l2.628906 15.070313c.710938 4.089844-3.648438 7.199219-7.378906 5.269531l-3.980469-2.058594c-2.628906-22.832031-13.078125-34.5625-19.820313-54.339843l3.121094-6.222657c1.859375-3.71875 7.261719-3.71875 9.121094 0l6.878906 13.710938c.742188 1.480469 2.171875 2.5 3.832032 2.742188l15.367187 2.1875c4.171875.601562 5.839844 5.652343 2.820313 8.542968zm0 0" fill="#ffbd54"/><path d="m339.214844 353.214844 7.855468 15.785156c.847657 1.699219 2.484376 2.878906 4.378907 3.152344l17.570312 2.53125c4.765625.6875 6.671875 6.496094 3.21875 9.828125l-12.710937 12.289062c-1.371094 1.324219-1.996094 3.230469-1.671875 5.101563l3 17.347656c.8125 4.710938-4.167969 8.300781-8.433594 6.074219l-15.714844-8.191407c-1.695312-.882812-3.71875-.882812-5.410156 0l-15.714844 8.191407c-4.265625 2.226562-9.25-1.363281-8.433593-6.074219l3-17.347656c.324218-1.871094-.300782-3.777344-1.671876-5.101563l-12.714843-12.289062c-3.449219-3.332031-1.546875-9.140625 3.222656-9.828125l17.570313-2.53125c1.890624-.273438 3.527343-1.453125 4.375-3.152344l7.859374-15.785156c2.132813-4.285156 8.292969-4.285156 10.425782 0zm0 0" fill="#ffd659"/><path d="m359.523438 396.800781c-1.371094 1.320313-1.992188 3.230469-1.671876 5.101563l3 17.347656c.820313 4.710938-4.167968 8.300781-8.429687 6.082031l-2.269531-1.191406c-1.109375-30.710937-15.5-42.179687-22.480469-68.679687l1.121094-2.25c2.128906-4.28125 8.289062-4.28125 10.417969 0l7.859374 15.789062c.851563 1.699219 2.480469 2.882812 4.382813 3.152344l17.570313 2.527344c4.757812.691406 6.667968 6.5 3.21875 9.832031zm0 0" fill="#ffbd54"/><path d="m502.761719 161.90625c-12.609375-37.242188-36.683594-66.386719-69.71875-84.484375-2.519531-8.164063-9.820313-34.453125-11.617188-70.296875-.199219-3.992188-3.496093-7.125-7.492187-7.125h-138.828125c-3.949219 0-7.222657 3.0625-7.484375 7.003906-.078125 1.207032-8.375 121.320313-40.695313 175.1875-12.089843 20.152344-30.808593 53.273438-55.644531 98.4375-1.992188 3.628906-.667969 8.1875 2.960938 10.183594 1.144531.628906 2.382812.929688 3.605468.929688 2.648438 0 5.214844-1.402344 6.578125-3.886719 24.742188-45 43.371094-77.957031 55.359375-97.949219 29.894532-49.8125 39.976563-147.6875 42.265625-174.90625h124.824219c2.273438 32.078125 8.433594 55.601562 11.34375 65.273438-4.191406 3.941406-11.714844 11.445312-22.109375 23.492187-2.703125 3.136719-2.355469 7.875.78125 10.578125 3.136719 2.707031 7.871094 2.355469 10.578125-.78125 9.542969-11.0625 16.527344-18.082031 20.464844-21.824219 28.8125 16.390625 49.132812 41.421875 60.445312 74.476563 6.386719 18.652344 8.050782 35.042968 8.476563 43.074218-46.15625 15.863282-96.863281 63.125-150.90625 140.621094l-.019531-.039062c-2.265626-4.546875-6.832032-7.371094-11.929688-7.371094-5.089844 0-9.660156 2.824219-11.921875 7.371094l-7.460937 14.980468-16.699219 2.410157c-5.070313.726562-9.195313 4.199219-10.769531 9.058593-1.5625 4.839844-.257813 10.046876 3.40625 13.585938l12.046874 11.644531-2.84375 16.421875c-.261718 1.511719-.253906 3.015625-.011718 4.46875-6.890625 11.773438-13.710938 23.84375-20.285156 35.953125-12.921876 23.8125-37.761719 38.605469-64.824219 38.605469h-114.21875c-15.222657 0-30.03125-3.058594-44.023438-9.097656-13.957031-6.011719-26.347656-14.6875-36.820312-25.785156-3.628907-3.851563-5.207031-9.054688-4.332031-14.273438.863281-5.148438 3.980468-9.503906 8.566406-11.976562l99.285156-44.304688c1.816406 1.433594 4.226562 3.230469 7.160156 5.171875 20.410156 13.511719 45.691406 17.554687 69.363282 11.097656 23.785156-6.484375 43.617187-22.90625 54.410156-45.050781 56.277344-115.449219 103.679687-185.917969 133.539062-224.707031 2.523438-3.28125 1.914063-7.988281-1.371094-10.515625-3.28125-2.527344-7.988281-1.914063-10.515624 1.367187-30.28125 39.339844-78.308594 110.703125-135.132813 227.285157-8.902344 18.261718-25.257813 31.800781-44.875 37.152343-19.507813 5.320313-40.332031 1.988281-57.136719-9.132812-1.8125-1.203125-3.382812-2.328125-4.683594-3.308594 5.722657-10.644531 19.273438-35.800781 35.214844-65.015625 1.984375-3.636719.644532-8.191406-2.992187-10.175781s-8.191407-.644531-10.175781 2.992187c-17.859376 32.730469-32.730469 60.386719-36.96875 68.277344l-101.46875 45.273438c-.140626.0625-.28125.132812-.421876.203124-8.886718 4.65625-14.929687 12.996094-16.589843 22.886719-1.660157 9.890625 1.332031 19.746094 8.214843 27.042969 11.886719 12.601562 25.949219 22.449219 41.792969 29.273438 15.871094 6.847656 32.679688 10.320312 49.960938 10.320312h114.21875c32.566406 0 62.460937-17.796875 78.011719-46.449219 5.882812-10.835937 11.960937-21.636719 18.117187-32.222656 2.773437.449219 5.671875.011719 8.289063-1.351563l14.949218-7.792968 14.957032 7.792968c1.957031 1.023438 4.078124 1.527344 6.183593 1.527344 2.769531 0 5.515625-.871094 7.859375-2.582031 4.101563-2.996094 6.109375-7.957031 5.246094-12.949219l-2.839844-16.421875 12.046875-11.644531c3.660157-3.542969 4.964844-8.746094 3.402344-13.585938-1.570313-4.859374-5.695313-8.332031-10.765625-9.058593l-16.277344-2.347657c15.328125-22.367187 30.46875-42.339843 45.308594-59.789062 9.03125 25.507812 17.40625 58.285156 24.949219 97.691406.6875 3.589844 3.832031 6.089844 7.359375 6.089844.464844 0 .941406-.042969 1.417968-.136719 4.066407-.777343 6.734376-4.707031 5.957032-8.773437-8.46875-44.214844-18.019532-80.410156-28.417969-107.699219 30.058594-33.109375 58.714844-55.554687 84.957031-66.375-6.703125 47.914063-30.371094 219.207031-33.511718 271.082031h-8.125c-1.335938-11.464844-4.355469-35.613281-9.207032-64.972656-.675781-4.085938-4.535156-6.855469-8.621094-6.179688-4.085937.675782-6.851562 4.535157-6.175781 8.621094 5.285157 32.019532 8.371094 57.746094 9.453125 67.324219.660156 5.816406 5.574219 10.207031 11.425782 10.207031h14.558593c6.15625 0 11.203125-4.8125 11.492188-10.949218 2.515625-53.222657 34.953125-282.957032 35.28125-285.273438.042969-.277344.0625-.554688.070312-.828125 0-.011719.003907-.019531.003907-.027344.023437-.980469.5-24.269531-9.230469-53.019531zm-148.441407 229.5c-3.160156 3.050781-4.601562 7.453125-3.855468 11.773438l2.410156 13.921874-12.699219-6.617187c-1.933593-1.007813-4.050781-1.511719-6.171875-1.511719-2.117187 0-4.238281.503906-6.171875 1.511719l-12.699219 6.621094 2.410157-13.925781c.746093-4.320313-.691407-8.722657-3.851563-11.773438l-10.144531-9.800781 14.078125-2.03125c4.332031-.621094 8.078125-3.328125 10.023438-7.230469l6.355468-12.769531 4.167969 8.375c.039063.078125.078125.15625.117187.230469l2.070313 4.164062c1.945313 3.902344 5.691406 6.609375 10.019531 7.230469l14.078125 2.03125zm0 0"/><path d="m41.203125 242.660156-3.828125 22.371094c-.964844 5.652344 1.316406 11.25 5.953125 14.613281 2.609375 1.894531 5.660156 2.855469 8.730469 2.855469 2.375 0 4.757812-.574219 6.960937-1.734375l19.9375-10.5625 20.039063 10.5625c5.050781 2.664063 11.066406 2.234375 15.691406-1.121094 4.636719-3.363281 6.917969-8.960937 5.953125-14.613281l-3.847656-22.320312 16.210937-15.84375c4.09375-4 5.53125-9.867188 3.761719-15.3125-1.769531-5.4375-6.378906-9.324219-12.03125-10.148438l-22.332031-3.21875-10.019532-20.355469c-2.53125-5.140625-7.65625-8.332031-13.375-8.332031-5.722656 0-10.847656 3.195312-13.375 8.332031l-9.949218 20.308594-22.402344 3.265625c-5.652344.824219-10.261719 4.710938-12.03125 10.148438-1.769531 5.445312-.332031 11.3125 3.761719 15.3125zm16.644531-29.675781c4.855469-.707031 9.054688-3.761719 11.226563-8.175781l9.933593-20.179688 9.933594 20.183594c2.171875 4.410156 6.371094 7.464844 11.226563 8.171875l22.257812 3.246094-16.117187 15.75c-3.507813 3.429687-5.109375 8.367187-4.28125 13.207031l3.796875 22.222656-19.871094-10.476562c-2.175781-1.148438-4.558594-1.71875-6.945313-1.71875-2.386718 0-4.769531.570312-6.945312 1.71875l-19.875 10.472656 3.800781-22.21875c.828125-4.839844-.773437-9.777344-4.28125-13.207031l-16.117187-15.753907zm0 0"/><path d="m158.515625 108.125-2.394531 13.726562c-.816406 4.691407 1.066406 9.363282 4.921875 12.191407 2.226562 1.632812 4.835937 2.460937 7.464843 2.460937 1.984376 0 3.980469-.472656 5.828126-1.429687l12.671874-6.554688 12.671876 6.554688c4.300781 2.226562 9.390624 1.828125 13.289062-1.03125 3.855469-2.828125 5.742188-7.5 4.925781-12.191407l-2.394531-13.726562 10.15625-9.742188c3.472656-3.332031 4.71875-8.234374 3.246094-12.804687-1.476563-4.597656-5.382813-7.882813-10.195313-8.566406l-14.136719-2.023438-6.296874-12.558593s0-.003907-.003907-.003907c-2.144531-4.269531-6.457031-6.925781-11.261719-6.925781-4.804687 0-9.121093 2.65625-11.265624 6.929688l-6.300782 12.558593-14.136718 2.023438c-4.808594.6875-8.714844 3.96875-10.195313 8.566406-1.46875 4.570313-.222656 9.476563 3.25 12.804687zm14.285156-18.464844c4.089844-.582031 7.632813-3.125 9.472657-6.796875l4.730468-9.4375 4.734375 9.4375c1.84375 3.671875 5.382813 6.214844 9.472657 6.796875l10.328124 1.476563-7.390624 7.09375c-3.003907 2.878906-4.371094 7.039062-3.660157 11.128906l1.773438 10.164063-9.441407-4.882813c-3.640624-1.882813-7.988281-1.882813-11.625 0l-9.441406 4.882813 1.769532-10.164063c.714843-4.085937-.652344-8.246094-3.660157-11.128906l-7.390625-7.089844zm0 0"/></svg>