<?xml version="1.0" standalone="no"?>
<!DOCTYPE svg PUBLIC "-//W3C//DTD SVG 20010904//EN"
 "http://www.w3.org/TR/2001/REC-SVG-20010904/DTD/svg10.dtd">
<svg version="1.0" xmlns="http://www.w3.org/2000/svg"
 width="700.000000pt" height="700.000000pt" viewBox="0 0 700.000000 700.000000"
 preserveAspectRatio="xMidYMid meet">
<metadata>
Created by potrace 1.11, written by Peter Selinger 2001-2013
</metadata>
<g transform="translate(0.000000,700.000000) scale(0.100000,-0.100000)"
fill="#000000" stroke="none">
<path d="M3448 5745 c-2 -2 -25 -5 -52 -8 -110 -14 -260 -83 -349 -163 -124
-111 -205 -268 -225 -434 -11 -97 -1 -139 42 -176 43 -37 82 -45 133 -28 31
11 81 54 84 73 0 3 2 14 4 23 2 9 6 41 9 70 12 120 76 227 174 295 73 50 112
63 209 70 223 17 418 -156 429 -379 10 -230 -153 -415 -383 -433 -69 -5 -114
-28 -138 -68 -18 -29 -20 -53 -22 -247 0 -118 -2 -222 -2 -231 -1 -11 -19 -20
-57 -28 -187 -42 -383 -177 -493 -340 -51 -74 -83 -143 -117 -251 -46 -143
-53 -149 -379 -325 -110 -59 -222 -120 -250 -135 -27 -15 -77 -42 -110 -60
-33 -18 -159 -87 -280 -153 -121 -66 -247 -135 -280 -153 -33 -17 -132 -71
-220 -119 -88 -48 -188 -103 -223 -121 -34 -19 -77 -43 -95 -53 -18 -10 -180
-98 -361 -196 -356 -194 -397 -223 -448 -326 -37 -75 -46 -114 -43 -200 10
-268 254 -447 514 -377 43 11 165 70 185 89 6 5 1200 9 2791 9 l2782 0 84 -46
c99 -53 174 -73 254 -68 177 13 325 134 370 305 14 50 14 165 0 209 -34 116
-115 208 -240 274 -127 68 -204 110 -300 163 -49 28 -126 69 -170 93 -44 24
-109 59 -145 78 -36 19 -116 64 -179 98 -62 35 -115 64 -117 64 -2 0 -63 33
-136 73 -73 41 -164 91 -203 112 -38 21 -92 50 -120 65 -129 70 -525 286 -564
307 -24 13 -64 35 -88 48 -23 14 -87 48 -141 76 -124 66 -201 117 -224 149
-10 14 -34 70 -53 125 -19 54 -45 120 -57 145 -99 209 -323 388 -548 440 -30
7 -57 16 -60 20 -4 7 -5 215 -1 281 1 11 14 19 39 24 90 17 234 103 316 189
44 47 105 135 128 186 97 211 72 478 -61 674 -34 51 -123 137 -181 175 -121
80 -219 110 -367 116 -35 1 -64 1 -65 0z m189 -1932 c65 -17 163 -60 163 -72
0 -4 -24 -13 -54 -20 -88 -20 -206 -88 -292 -168 -88 -82 -148 -182 -193 -323
-17 -52 -39 -108 -50 -125 -14 -22 -95 -73 -322 -200 -167 -93 -394 -221 -504
-284 -110 -62 -220 -125 -245 -138 -25 -13 -52 -28 -60 -33 -25 -15 -339 -193
-790 -445 -234 -131 -515 -290 -625 -353 -229 -131 -268 -143 -330 -101 -41
28 -59 67 -58 122 2 69 17 82 240 203 48 26 106 57 128 69 22 12 72 39 110 60
39 21 113 61 165 90 52 28 131 71 175 95 90 48 115 62 338 184 87 48 184 101
215 118 31 17 210 114 397 215 187 102 367 200 400 218 59 32 97 53 225 123
36 20 70 40 75 44 58 45 82 69 118 122 50 70 55 81 97 207 17 51 41 109 52
129 78 130 205 225 353 264 68 18 202 18 272 -1z m73 -995 c25 -14 205 -115
400 -225 195 -111 371 -210 390 -220 19 -11 109 -62 200 -113 91 -51 185 -104
210 -118 237 -132 856 -484 862 -490 4 -4 -1018 -7 -2272 -7 -1254 0 -2276 3
-2272 7 4 3 34 22 67 41 426 241 753 425 765 431 8 4 24 12 35 19 24 15 192
110 255 145 25 14 77 43 115 65 39 22 124 70 190 107 66 37 262 147 435 245
173 98 337 190 364 205 l48 27 82 -47 c44 -26 101 -58 126 -72z"/>
</g>
</svg>
