<svg height="512pt" viewBox="0 -68 512.00006 512" width="512pt" xmlns="http://www.w3.org/2000/svg"><path d="m187.910156 292.539062h136.179688v68.878907h-136.179688zm0 0" fill="#41464f"/><path d="m209.652344 7.535156h92.695312v171.011719h-92.695312zm0 0" fill="#495059"/><path d="m251.957031 119.816406-42.285156-112.320312-55.589844 17.210937c-13.472656 4.167969-25.109375 12.816407-32.988281 24.515625l-111.191406 165.097656c-3.546875 5.269532-3.171875 12.25.921875 17.109376l21.386719 25.382812c5.589843 6.632812 15.769531 6.757812 21.523437.265625l79.53125-89.808594v174.550781c0 15.191407 12.3125 27.503907 27.5 27.503907h23.578125c20.863281 0 40.800781-8.617188 55.101562-23.816407 10.632813-11.300781 16.554688-26.234374 16.554688-41.753906v-161.726562c0-7.585938-1.371094-15.109375-4.042969-22.210938zm0 0" fill="#495059"/><path d="m160.898438 22.59375-6.816407 2.113281c-13.472656 4.167969-25.109375 12.816407-32.988281 24.515625l-111.191406 165.097656c-3.546875 5.269532-3.171875 12.25.921875 17.109376l21.386719 25.382812c5.59375 6.632812 15.769531 6.757812 21.523437.265625l79.53125-89.808594v174.550781c0 15.191407 12.3125 27.503907 27.5 27.503907h23.578125c8.996094 0 17.820312-1.613281 26.097656-4.652344-38.484375-53.519531-48.597656-220.09375-49.542968-342.078125zm0 0" fill="#41464f"/><path d="m209.691406 7.554688c-.003906-.015626-.023437-.027344-.039062-.019532l-21.558594 6.640625-7.085938 70.519531c-.488281 4.871094 2.304688 9.476563 6.851563 11.296876l17.253906 6.902343c5.738281 2.292969 8.097657 9.144531 4.992188 14.484375l-2.804688 4.816406c-3.460937 5.953126-3.351562 13.332032.289063 19.175782l48.410156 77.734375v-77.078125c0-7.585938-1.371094-15.113282-4.042969-22.210938zm0 0" fill="#dfdfdd"/><path d="m502.097656 214.320312-111.191406-165.097656c-7.878906-11.699218-19.515625-20.347656-32.988281-24.519531l-55.589844-17.207031-42.285156 112.320312c-2.671875 7.101563-4.042969 14.625-4.042969 22.210938v161.726562c0 15.519532 5.921875 30.453125 16.554688 41.753906 14.296874 15.199219 34.238281 23.816407 55.101562 23.816407h23.578125c15.1875 0 27.5-12.316407 27.5-27.503907v-174.550781l79.53125 89.808594c5.75 6.496094 15.929687 6.367187 21.523437-.265625l21.386719-25.382812c4.09375-4.859376 4.46875-11.839844.921875-17.109376zm0 0" fill="#495059"/><path d="m302.304688 7.554688c.007812-.015626.027343-.027344.042968-.019532l21.554688 6.640625 7.085937 70.519531c.492188 4.871094-2.304687 9.476563-6.847656 11.296876l-17.257813 6.902343c-5.734374 2.292969-8.09375 9.144531-4.988281 14.484375l2.804688 4.816406c3.460937 5.953126 3.351562 13.332032-.289063 19.175782l-48.410156 77.734375v-77.078125c0-7.585938 1.371094-15.113282 4.042969-22.210938zm0 0" fill="#eeeeed"/><path d="m352.871094 145.40625h-27.542969c-4.144531 0-7.5-3.359375-7.5-7.5 0-4.144531 3.355469-7.5 7.5-7.5h27.542969c4.144531 0 7.503906 3.355469 7.503906 7.5 0 4.140625-3.359375 7.5-7.503906 7.5zm0 0" fill="#eb8d9a"/><path d="m221.472656 280.746094h-53.679687c-2.964844 0-5.363281-2.402344-5.363281-5.363282v-12.867187c0-2.960937 2.398437-5.363281 5.363281-5.363281h53.679687c2.964844 0 5.363282 2.402344 5.363282 5.363281v12.867187c0 2.960938-2.398438 5.363282-5.363282 5.363282zm0 0" fill="#eeeeed"/><path d="m290.523438 280.746094h53.683593c2.964844 0 5.363281-2.402344 5.363281-5.363282v-12.867187c0-2.960937-2.398437-5.363281-5.363281-5.363281h-53.683593c-2.960938 0-5.363282 2.402344-5.363282 5.363281v12.867187c0 2.960938 2.402344 5.363282 5.363282 5.363282zm0 0" fill="#eeeeed"/><path d="m490.414062 220.421875c0-4.003906-3.246093-7.25-7.246093-7.25-4.003907 0-7.25 3.246094-7.25 7.25s3.246093 7.25 7.25 7.25c4 0 7.246093-3.246094 7.246093-7.25zm-146.207031 29.230469h-53.683593c-7.09375 0-12.863282 5.769531-12.863282 12.863281v12.867187c0 7.09375 5.769532 12.863282 12.863282 12.863282h53.683593c7.09375 0 12.867188-5.773438 12.867188-12.863282v-12.867187c0-7.09375-5.773438-12.863281-12.867188-12.863281zm-2.136719 23.589844h-49.40625v-8.589844h49.40625zm-320.484374-52.820313c0 4.003906 3.242187 7.25 7.246093 7.25 4.003907 0 7.25-3.246094 7.25-7.25s-3.246093-7.25-7.25-7.25c-4.003906 0-7.246093 3.246094-7.246093 7.25zm486.730468-10.292969-78.117187-115.992187c-2.3125-3.433594-6.972657-4.34375-10.410157-2.03125-3.433593 2.316406-4.34375 6.976562-2.03125 10.414062l78.117188 115.992188c1.667969 2.476562 1.488281 5.800781-.433594 8.085937l-21.390625 25.382813c-1.277343 1.515625-3.074219 2.363281-5.054687 2.390625-.03125 0-.058594 0-.089844 0-1.949219 0-3.730469-.804688-5.023438-2.265625l-79.53125-89.808594c-2.066406-2.335937-5.359374-3.144531-8.273437-2.042969-2.914063 1.105469-4.84375 3.898438-4.84375 7.015625v174.554688c0 11.027343-8.972656 20-20 20h-23.574219c-18.71875 0-36.8125-7.820313-49.640625-21.453125-9.359375-9.949219-14.515625-22.953125-14.515625-36.617188v-82.5l47.273438-75.917968c5.125-8.222657 5.277344-18.535157.40625-26.910157l-2.804688-4.816406c-.523437-.902344-.355468-1.746094-.210937-2.171875.144531-.421875.535156-1.191406 1.503906-1.578125l17.253906-6.902344c7.605469-3.042969 12.347657-10.859375 11.527344-19.011719l-5.953125-59.257812 23.199219 7.183594c11.796875 3.648437 22.089843 11.300781 28.984375 21.542968l13.527344 20.085938c2.316406 3.433594 6.976562 4.34375 10.414062 2.03125 3.433594-2.316406 4.34375-6.976562 2.03125-10.410156l-13.53125-20.089844c-8.800781-13.070312-21.9375-22.832031-36.988281-27.492188l-33.929688-10.5c-.058593-.019531-.117187-.039062-.171875-.054687l-21.492187-6.652344c-.972657-.300781-1.964844-.3906248-2.925781-.2968748h-91.242188c-.960938-.09375-1.949219-.0039062-2.921875.2968748l-21.527344 6.664063c-.03125.011718-.0625.019531-.09375.03125l-33.96875 10.511718c-15.050781 4.660157-28.191406 14.421876-36.992187 27.492188l-111.1875 165.097656c-5.390625 8.007813-4.8125 18.753906 1.40625 26.132813l21.386718 25.382812c4.070313 4.832031 10.027344 7.644531 16.34375 7.722657 6.34375.097656 12.339844-2.589844 16.53125-7.316407l66.414063-75v115.746094c0 4.140625 3.355469 7.5 7.5 7.5 4.140625 0 7.5-3.359375 7.5-7.5v-135.527344c0-3.117187-1.925781-5.910156-4.839844-7.015625-2.914062-1.105468-6.207031-.292968-8.273437 2.039063l-79.53125 89.808593c-1.316406 1.488282-3.148438 2.300782-5.117188 2.265626-1.980468-.023438-3.777344-.871094-5.054687-2.390626l-21.390625-25.382812c-1.921875-2.28125-2.101563-5.605469-.433594-8.082031l111.191406-165.101563c6.894532-10.238281 17.1875-17.890625 28.984375-21.539062l23.199219-7.183594-5.953125 59.253906c-.820313 8.152344 3.921875 15.96875 11.527344 19.011719l17.253906 6.902344c.96875.390625 1.359375 1.15625 1.503906 1.582031.148438.421875.3125 1.265625-.210937 2.167969l-2.804688 4.820312c-4.871094 8.375-4.714844 18.683594.40625 26.910157l47.277344 75.917968v82.5c0 13.660156-5.15625 26.664063-14.519531 36.613282-12.828125 13.636718-30.917969 21.453124-49.636719 21.453124h-23.578125c-11.027344 0-20-8.972656-20-20v-3.914062c0-4.140625-3.359375-7.5-7.5-7.5-4.144531 0-7.5 3.359375-7.5 7.5v3.914062c0 19.300782 15.699219 35 35 35h23.578125c12.269531 0 24.308594-2.777343 35.261719-7.902343h72.789062c10.953125 5.128906 22.992188 7.902343 35.261719 7.902343h23.578125c19.296875 0 35-15.699218 35-35v-154.769531l66.414063 75c4.1875 4.726563 10.207031 7.421875 16.53125 7.316407 6.316406-.078126 12.273437-2.894532 16.34375-7.722657l21.386718-25.382812c6.21875-7.378907 6.796875-18.125 1.40625-26.132813zm-201.457031-193.378906 10.078125 3.121094 6.589844 65.570312c.152344 1.539063-.738282 3.011719-2.171875 3.585938l-17.257813 6.902344c-4.757812 1.902343-8.445312 5.773437-10.117187 10.621093-1.667969 4.847657-1.144531 10.167969 1.429687 14.601563l2.804688 4.816406c2.070312 3.558594 2.003906 7.941406-.171875 11.433594l-34.542969 55.46875v-50.84375c0-6.707032 1.199219-13.292969 3.5625-19.570313zm-15.382813-1.714844-35.476562 94.230469-35.476562-94.230469zm-77.519531 122.371094c-2.175781-3.496094-2.242187-7.875-.171875-11.4375l2.800782-4.816406c2.578124-4.429688 3.101562-9.75 1.433593-14.597656-1.667969-4.847657-5.355469-8.71875-10.117187-10.625l-17.257813-6.902344c-1.433593-.574219-2.324219-2.046875-2.171875-3.582032l6.589844-65.570312 10.078125-3.121094 39.796875 105.707032c2.363281 6.277343 3.5625 12.859374 3.5625 19.570312v50.84375zm27.6875 216.511719c1.113281-1.058594 2.203125-2.144531 3.261719-3.269531 4.46875-4.746094 8.183594-10.039063 11.09375-15.714844 2.90625 5.675781 6.625 10.96875 11.089844 15.714844 1.058594 1.125 2.152344 2.210937 3.265625 3.269531zm-20.171875-65.671875c7.09375 0 12.867188-5.769532 12.867188-12.863282v-12.867187c0-7.09375-5.773438-12.863281-12.867188-12.863281h-53.683594c-7.09375 0-12.863281 5.773437-12.863281 12.863281v12.867187c0 7.09375 5.769531 12.863282 12.863281 12.863282zm-51.542968-23.59375h49.40625v8.589844h-49.40625zm0 0"/></svg>